<?xml version="1.0" standalone="no"?>
<!DOCTYPE svg PUBLIC "-//W3C//DTD SVG 20010904//EN"
 "http://www.w3.org/TR/2001/REC-SVG-20010904/DTD/svg10.dtd">
<svg version="1.0" xmlns="http://www.w3.org/2000/svg"
 width="356.000000pt" height="356.000000pt" viewBox="0 0 356.000000 356.000000"
 preserveAspectRatio="xMidYMid meet">
<metadata>
Created by potrace 1.11, written by Peter Selinger 2001-2013
</metadata>
<g transform="translate(0.000000,356.000000) scale(0.100000,-0.100000)"
fill="#000000" stroke="none">
<path d="M1668 3445 c-2 -1 -34 -5 -72 -9 -87 -8 -237 -41 -335 -72 -114 -37
-324 -145 -431 -221 -122 -87 -297 -262 -382 -383 -143 -202 -259 -493 -284
-715 -3 -22 -7 -51 -10 -65 -6 -35 -5 -280 2 -343 14 -123 66 -337 103 -422
121 -276 276 -492 467 -647 57 -46 61 -52 57 -85 -11 -104 114 -213 324 -282
91 -30 212 -58 288 -67 22 -3 50 -7 61 -9 110 -23 478 -23 644 0 19 2 53 7 75
10 84 11 253 54 331 84 170 66 278 168 273 258 -3 40 0 46 36 75 22 18 72 64
111 103 274 271 425 585 479 995 6 49 7 282 1 315 -2 11 -7 47 -10 80 -17 147
-75 335 -152 491 -41 85 -153 264 -186 298 -7 7 -35 39 -63 71 -43 50 -140
140 -225 209 -156 127 -467 268 -660 300 -19 3 -44 7 -55 10 -75 15 -375 31
-387 21z m240 -399 c184 -20 348 -76 507 -170 310 -185 524 -499 585 -856 15
-85 19 -288 7 -368 -52 -369 -267 -699 -578 -890 -275 -168 -602 -224 -903
-157 -259 59 -437 156 -622 340 -167 167 -289 387 -333 605 -6 30 -14 66 -17
80 -13 59 -11 280 3 374 25 168 95 350 192 496 110 167 300 334 487 428 63 31
223 86 289 98 22 4 47 9 55 11 8 2 67 7 130 10 63 3 117 7 118 9 2 1 9 1 15
-1 7 -2 36 -6 65 -9z"/>
<path d="M1788 2886 c-1 -2 -45 -6 -95 -9 -394 -26 -756 -293 -905 -667 -26
-65 -56 -177 -65 -240 -11 -81 -8 -277 6 -340 6 -30 13 -64 15 -75 9 -45 49
-152 83 -219 161 -320 461 -531 823 -580 53 -7 214 -8 250 -2 14 3 43 7 65 11
50 7 187 45 200 55 6 4 21 10 35 13 30 7 192 102 235 137 209 172 349 402 396
652 17 92 19 263 3 359 -58 366 -305 679 -644 819 -89 37 -216 68 -305 76 -38
3 -75 7 -82 9 -6 2 -13 2 -15 1z"/>
</g>
</svg>
