<?xml version="1.0" standalone="no"?>
<!DOCTYPE svg PUBLIC "-//W3C//DTD SVG 20010904//EN"
 "http://www.w3.org/TR/2001/REC-SVG-20010904/DTD/svg10.dtd">
<svg version="1.0" xmlns="http://www.w3.org/2000/svg"
 width="181.000000pt" height="181.000000pt" viewBox="0 0 181.000000 181.000000"
 preserveAspectRatio="xMidYMid meet">
<metadata>
Created by potrace 1.11, written by Peter Selinger 2001-2013
</metadata>
<g transform="translate(0.000000,181.000000) scale(0.100000,-0.100000)"
fill="#000000" stroke="none">
<path d="M855 1355 c-36 -30 -50 -31 -106 -5 -24 11 -52 20 -62 20 -32 0 -72
-53 -101 -135 -73 -202 -60 -182 -119 -190 -84 -11 -128 -27 -163 -61 -30 -28
-34 -37 -34 -83 0 -69 25 -114 103 -187 248 -233 780 -356 1013 -236 47 25 99
77 113 115 16 42 13 124 -5 162 -19 41 -101 119 -147 141 -33 16 -35 19 -61
138 -35 155 -45 187 -65 210 -33 38 -265 137 -318 136 -10 -1 -31 -12 -48 -25z"/>
</g>
</svg>
